<mxfile host="app.diagrams.net" agent="Mozilla/5.0 (Windows NT 10.0; Win64; x64) AppleWebKit/537.36 (KHTML, like Gecko) Chrome/140.0.0.0 Safari/537.36" version="26.2.12">
  <diagram name="第 1 页" id="ymwS_IY8MIXRyYueqAV2">
    <mxGraphModel dx="788" dy="468" grid="1" gridSize="10" guides="1" tooltips="1" connect="1" arrows="1" fold="1" page="1" pageScale="1" pageWidth="1169" pageHeight="827" math="0" shadow="0">
      <root>
        <mxCell id="0" />
        <mxCell id="1" parent="0" />
        <mxCell id="MRQA57uDgicTAVU72iBn-24" value="" style="triangle;whiteSpace=wrap;html=1;direction=north;strokeWidth=1;" parent="1" vertex="1">
          <mxGeometry x="755" y="379" width="10" height="9" as="geometry" />
        </mxCell>
        <mxCell id="_RP0dMVc5jquQAwwALMM-1" value="" style="rounded=0;whiteSpace=wrap;html=1;fillStyle=auto;fillColor=#808080;" parent="1" vertex="1">
          <mxGeometry x="440" y="259" width="320" height="120" as="geometry" />
        </mxCell>
        <mxCell id="Vg7lrB8-2E0x5ShmS8df-7" value="" style="endArrow=none;html=1;rounded=0;" parent="1" edge="1">
          <mxGeometry width="50" height="50" relative="1" as="geometry">
            <mxPoint x="795" y="379" as="sourcePoint" />
            <mxPoint x="760" y="379" as="targetPoint" />
          </mxGeometry>
        </mxCell>
        <mxCell id="_RP0dMVc5jquQAwwALMM-17" value="" style="endArrow=classic;html=1;rounded=0;" parent="1" edge="1">
          <mxGeometry width="50" height="50" relative="1" as="geometry">
            <mxPoint x="600" y="224" as="sourcePoint" />
            <mxPoint x="600" y="258" as="targetPoint" />
          </mxGeometry>
        </mxCell>
        <mxCell id="ljivYINf26XFpLEp_7z6-9" value="" style="ellipse;whiteSpace=wrap;html=1;aspect=fixed;strokeWidth=1;" parent="1" vertex="1">
          <mxGeometry x="758" y="377" width="4" height="4" as="geometry" />
        </mxCell>
        <mxCell id="ljivYINf26XFpLEp_7z6-10" value="" style="endArrow=none;html=1;rounded=0;" parent="1" edge="1">
          <mxGeometry width="50" height="50" relative="1" as="geometry">
            <mxPoint x="750" y="393" as="sourcePoint" />
            <mxPoint x="740" y="414" as="targetPoint" />
          </mxGeometry>
        </mxCell>
        <mxCell id="ljivYINf26XFpLEp_7z6-22" value="" style="endArrow=none;html=1;rounded=0;" parent="1" edge="1">
          <mxGeometry width="50" height="50" relative="1" as="geometry">
            <mxPoint x="781" y="393" as="sourcePoint" />
            <mxPoint x="738" y="393" as="targetPoint" />
          </mxGeometry>
        </mxCell>
        <mxCell id="ljivYINf26XFpLEp_7z6-23" value="" style="endArrow=none;html=1;rounded=0;" parent="1" edge="1">
          <mxGeometry width="50" height="50" relative="1" as="geometry">
            <mxPoint x="757" y="393" as="sourcePoint" />
            <mxPoint x="747" y="414" as="targetPoint" />
          </mxGeometry>
        </mxCell>
        <mxCell id="ljivYINf26XFpLEp_7z6-24" value="" style="endArrow=none;html=1;rounded=0;" parent="1" edge="1">
          <mxGeometry width="50" height="50" relative="1" as="geometry">
            <mxPoint x="765" y="393" as="sourcePoint" />
            <mxPoint x="755" y="414" as="targetPoint" />
          </mxGeometry>
        </mxCell>
        <mxCell id="ljivYINf26XFpLEp_7z6-25" value="" style="endArrow=none;html=1;rounded=0;" parent="1" edge="1">
          <mxGeometry width="50" height="50" relative="1" as="geometry">
            <mxPoint x="773" y="393" as="sourcePoint" />
            <mxPoint x="763" y="414" as="targetPoint" />
          </mxGeometry>
        </mxCell>
        <mxCell id="ljivYINf26XFpLEp_7z6-26" value="" style="endArrow=none;html=1;rounded=0;startSize=6;" parent="1" edge="1">
          <mxGeometry width="50" height="50" relative="1" as="geometry">
            <mxPoint x="744" y="393" as="sourcePoint" />
            <mxPoint x="738" y="404" as="targetPoint" />
          </mxGeometry>
        </mxCell>
        <mxCell id="ljivYINf26XFpLEp_7z6-28" value="" style="endArrow=none;html=1;rounded=0;" parent="1" edge="1">
          <mxGeometry width="50" height="50" relative="1" as="geometry">
            <mxPoint x="781" y="393" as="sourcePoint" />
            <mxPoint x="771" y="414" as="targetPoint" />
          </mxGeometry>
        </mxCell>
        <mxCell id="ljivYINf26XFpLEp_7z6-29" value="" style="endArrow=none;html=1;rounded=0;startSize=6;" parent="1" edge="1">
          <mxGeometry width="50" height="50" relative="1" as="geometry">
            <mxPoint x="782" y="403" as="sourcePoint" />
            <mxPoint x="776" y="414" as="targetPoint" />
          </mxGeometry>
        </mxCell>
        <mxCell id="qnAz9l0GQETao4ylGaTY-8" value="" style="ellipse;whiteSpace=wrap;html=1;aspect=fixed;strokeWidth=1;" parent="1" vertex="1">
          <mxGeometry x="755" y="388" width="4" height="4" as="geometry" />
        </mxCell>
        <mxCell id="qnAz9l0GQETao4ylGaTY-9" value="" style="ellipse;whiteSpace=wrap;html=1;aspect=fixed;strokeWidth=1;" parent="1" vertex="1">
          <mxGeometry x="761" y="388" width="4" height="4" as="geometry" />
        </mxCell>
        <mxCell id="Vg7lrB8-2E0x5ShmS8df-1" value="2F" style="text;html=1;align=center;verticalAlign=middle;resizable=0;points=[];autosize=1;strokeColor=none;fillColor=none;" parent="1" vertex="1">
          <mxGeometry x="595" y="220" width="40" height="30" as="geometry" />
        </mxCell>
        <mxCell id="Vg7lrB8-2E0x5ShmS8df-3" value="" style="endArrow=none;html=1;rounded=0;" parent="1" edge="1">
          <mxGeometry width="50" height="50" relative="1" as="geometry">
            <mxPoint x="760" y="434" as="sourcePoint" />
            <mxPoint x="760" y="393" as="targetPoint" />
          </mxGeometry>
        </mxCell>
        <mxCell id="Vg7lrB8-2E0x5ShmS8df-4" value="" style="endArrow=classic;startArrow=classic;html=1;rounded=0;" parent="1" edge="1">
          <mxGeometry width="50" height="50" relative="1" as="geometry">
            <mxPoint x="441" y="430" as="sourcePoint" />
            <mxPoint x="760" y="430" as="targetPoint" />
          </mxGeometry>
        </mxCell>
        <mxCell id="Vg7lrB8-2E0x5ShmS8df-5" value="120" style="text;html=1;align=center;verticalAlign=middle;resizable=0;points=[];autosize=1;strokeColor=none;fillColor=none;" parent="1" vertex="1">
          <mxGeometry x="580" y="399" width="40" height="30" as="geometry" />
        </mxCell>
        <mxCell id="Vg7lrB8-2E0x5ShmS8df-6" value="" style="endArrow=none;html=1;rounded=0;" parent="1" edge="1">
          <mxGeometry width="50" height="50" relative="1" as="geometry">
            <mxPoint x="797" y="259" as="sourcePoint" />
            <mxPoint x="760" y="259" as="targetPoint" />
          </mxGeometry>
        </mxCell>
        <mxCell id="Vg7lrB8-2E0x5ShmS8df-8" value="" style="endArrow=classic;startArrow=classic;html=1;rounded=0;" parent="1" edge="1">
          <mxGeometry width="50" height="50" relative="1" as="geometry">
            <mxPoint x="790" y="379" as="sourcePoint" />
            <mxPoint x="790" y="259" as="targetPoint" />
          </mxGeometry>
        </mxCell>
        <mxCell id="Vg7lrB8-2E0x5ShmS8df-9" value="40" style="text;html=1;align=center;verticalAlign=middle;resizable=0;points=[];autosize=1;strokeColor=none;fillColor=none;rotation=270;" parent="1" vertex="1">
          <mxGeometry x="760" y="304" width="40" height="30" as="geometry" />
        </mxCell>
        <mxCell id="MRQA57uDgicTAVU72iBn-1" value="" style="ellipse;whiteSpace=wrap;html=1;aspect=fixed;strokeWidth=1;direction=south;" parent="1" vertex="1">
          <mxGeometry x="598" y="257" width="4" height="4" as="geometry" />
        </mxCell>
        <mxCell id="MRQA57uDgicTAVU72iBn-23" value="" style="group" parent="1" vertex="1" connectable="0">
          <mxGeometry x="418" y="380" width="44" height="34" as="geometry" />
        </mxCell>
        <mxCell id="qnAz9l0GQETao4ylGaTY-4" value="" style="triangle;whiteSpace=wrap;html=1;direction=north;strokeWidth=1;" parent="MRQA57uDgicTAVU72iBn-23" vertex="1">
          <mxGeometry x="17" width="10" height="12" as="geometry" />
        </mxCell>
        <mxCell id="MRQA57uDgicTAVU72iBn-13" value="" style="endArrow=none;html=1;rounded=0;" parent="MRQA57uDgicTAVU72iBn-23" edge="1">
          <mxGeometry width="50" height="50" relative="1" as="geometry">
            <mxPoint x="12" y="13" as="sourcePoint" />
            <mxPoint x="2" y="34" as="targetPoint" />
          </mxGeometry>
        </mxCell>
        <mxCell id="MRQA57uDgicTAVU72iBn-14" value="" style="endArrow=none;html=1;rounded=0;" parent="MRQA57uDgicTAVU72iBn-23" edge="1">
          <mxGeometry width="50" height="50" relative="1" as="geometry">
            <mxPoint x="43" y="13" as="sourcePoint" />
            <mxPoint y="13" as="targetPoint" />
          </mxGeometry>
        </mxCell>
        <mxCell id="MRQA57uDgicTAVU72iBn-15" value="" style="endArrow=none;html=1;rounded=0;" parent="MRQA57uDgicTAVU72iBn-23" edge="1">
          <mxGeometry width="50" height="50" relative="1" as="geometry">
            <mxPoint x="19" y="13" as="sourcePoint" />
            <mxPoint x="9" y="34" as="targetPoint" />
          </mxGeometry>
        </mxCell>
        <mxCell id="MRQA57uDgicTAVU72iBn-16" value="" style="endArrow=none;html=1;rounded=0;" parent="MRQA57uDgicTAVU72iBn-23" edge="1">
          <mxGeometry width="50" height="50" relative="1" as="geometry">
            <mxPoint x="27" y="13" as="sourcePoint" />
            <mxPoint x="17" y="34" as="targetPoint" />
          </mxGeometry>
        </mxCell>
        <mxCell id="MRQA57uDgicTAVU72iBn-17" value="" style="endArrow=none;html=1;rounded=0;" parent="MRQA57uDgicTAVU72iBn-23" edge="1">
          <mxGeometry width="50" height="50" relative="1" as="geometry">
            <mxPoint x="35" y="13" as="sourcePoint" />
            <mxPoint x="25" y="34" as="targetPoint" />
          </mxGeometry>
        </mxCell>
        <mxCell id="MRQA57uDgicTAVU72iBn-18" value="" style="endArrow=none;html=1;rounded=0;startSize=6;" parent="MRQA57uDgicTAVU72iBn-23" edge="1">
          <mxGeometry width="50" height="50" relative="1" as="geometry">
            <mxPoint x="6" y="13" as="sourcePoint" />
            <mxPoint y="24" as="targetPoint" />
          </mxGeometry>
        </mxCell>
        <mxCell id="MRQA57uDgicTAVU72iBn-19" value="" style="endArrow=none;html=1;rounded=0;" parent="MRQA57uDgicTAVU72iBn-23" edge="1">
          <mxGeometry width="50" height="50" relative="1" as="geometry">
            <mxPoint x="43" y="13" as="sourcePoint" />
            <mxPoint x="33" y="34" as="targetPoint" />
          </mxGeometry>
        </mxCell>
        <mxCell id="MRQA57uDgicTAVU72iBn-20" value="" style="endArrow=none;html=1;rounded=0;startSize=6;" parent="MRQA57uDgicTAVU72iBn-23" edge="1">
          <mxGeometry width="50" height="50" relative="1" as="geometry">
            <mxPoint x="44" y="23" as="sourcePoint" />
            <mxPoint x="38" y="34" as="targetPoint" />
          </mxGeometry>
        </mxCell>
        <mxCell id="qnAz9l0GQETao4ylGaTY-15" value="" style="ellipse;whiteSpace=wrap;html=1;aspect=fixed;strokeWidth=1;direction=south;" parent="1" vertex="1">
          <mxGeometry x="438" y="377" width="4" height="4" as="geometry" />
        </mxCell>
        <mxCell id="MRQA57uDgicTAVU72iBn-25" value="" style="endArrow=none;html=1;rounded=0;" parent="1" edge="1">
          <mxGeometry width="50" height="50" relative="1" as="geometry">
            <mxPoint x="440" y="434" as="sourcePoint" />
            <mxPoint x="440" y="393" as="targetPoint" />
          </mxGeometry>
        </mxCell>
      </root>
    </mxGraphModel>
  </diagram>
</mxfile>
